{
 "cells": [
  {
   "cell_type": "code",
   "execution_count": 18,
   "metadata": {},
   "outputs": [
    {
     "name": "stdout",
     "output_type": "stream",
     "text": [
      "Track 0: \n",
      "MetaMessage('set_tempo', tempo=500000, time=0)\n",
      "MetaMessage('time_signature', numerator=4, denominator=4, clocks_per_click=24, notated_32nd_notes_per_beat=8, time=0)\n",
      "MetaMessage('end_of_track', time=1024)\n",
      "Track 1: Sitar\n",
      "MetaMessage('track_name', name='Sitar', time=0)\n",
      "program_change channel=0 program=104 time=0\n",
      "pitchwheel channel=0 pitch=0 time=0\n",
      "program_change channel=0 program=104 time=0\n",
      "note_on channel=0 note=60 velocity=55 time=0\n",
      "note_on channel=0 note=88 velocity=28 time=0\n",
      "note_on channel=0 note=98 velocity=28 time=0\n",
      "note_on channel=0 note=101 velocity=18 time=0\n",
      "note_on channel=0 note=74 velocity=31 time=0\n",
      "note_on channel=0 note=77 velocity=27 time=0\n",
      "note_on channel=0 note=82 velocity=26 time=0\n",
      "note_on channel=0 note=85 velocity=11 time=0\n",
      "note_on channel=0 note=90 velocity=9 time=0\n",
      "note_on channel=0 note=93 velocity=15 time=0\n",
      "note_on channel=0 note=60 velocity=49 time=0\n",
      "note_on channel=0 note=68 velocity=56 time=0\n",
      "note_on channel=0 note=75 velocity=32 time=0\n",
      "note_on channel=0 note=79 velocity=41 time=0\n",
      "note_on channel=0 note=88 velocity=28 time=0\n",
      "note_on channel=0 note=98 velocity=28 time=0\n",
      "note_on channel=0 note=100 velocity=33 time=0\n",
      "note_on channel=0 note=103 velocity=37 time=0\n",
      "note_on channel=0 note=77 velocity=27 time=0\n",
      "note_on channel=0 note=82 velocity=26 time=0\n",
      "note_on channel=0 note=92 velocity=19 time=0\n",
      "note_on channel=0 note=93 velocity=15 time=0\n",
      "note_on channel=0 note=60 velocity=49 time=0\n",
      "note_on channel=0 note=94 velocity=26 time=0\n",
      "note_off channel=0 note=60 velocity=0 time=256\n",
      "note_off channel=0 note=88 velocity=0 time=0\n",
      "note_off channel=0 note=98 velocity=0 time=0\n",
      "note_off channel=0 note=101 velocity=0 time=0\n",
      "note_off channel=0 note=74 velocity=0 time=0\n",
      "note_off channel=0 note=77 velocity=0 time=0\n",
      "note_off channel=0 note=82 velocity=0 time=0\n",
      "note_off channel=0 note=85 velocity=0 time=0\n",
      "note_off channel=0 note=90 velocity=0 time=0\n",
      "note_off channel=0 note=93 velocity=0 time=0\n",
      "note_off channel=0 note=60 velocity=0 time=0\n",
      "note_on channel=0 note=82 velocity=27 time=0\n",
      "note_on channel=0 note=85 velocity=31 time=0\n",
      "note_on channel=0 note=61 velocity=19 time=0\n",
      "note_on channel=0 note=102 velocity=28 time=0\n",
      "note_on channel=0 note=91 velocity=18 time=0\n",
      "note_on channel=0 note=97 velocity=43 time=0\n",
      "note_off channel=0 note=79 velocity=0 time=85\n",
      "note_off channel=0 note=88 velocity=0 time=0\n",
      "note_off channel=0 note=98 velocity=0 time=0\n",
      "note_off channel=0 note=100 velocity=0 time=0\n",
      "note_off channel=0 note=103 velocity=0 time=0\n",
      "note_off channel=0 note=77 velocity=0 time=0\n",
      "note_off channel=0 note=82 velocity=0 time=0\n",
      "note_off channel=0 note=92 velocity=0 time=0\n",
      "note_off channel=0 note=93 velocity=0 time=0\n",
      "note_off channel=0 note=60 velocity=0 time=0\n",
      "note_off channel=0 note=94 velocity=0 time=0\n",
      "note_on channel=0 note=60 velocity=53 time=0\n",
      "note_on channel=0 note=61 velocity=19 time=0\n",
      "note_on channel=0 note=102 velocity=28 time=0\n",
      "note_on channel=0 note=93 velocity=12 time=0\n",
      "note_on channel=0 note=89 velocity=22 time=0\n",
      "note_on channel=0 note=73 velocity=37 time=0\n",
      "note_off channel=0 note=82 velocity=0 time=171\n",
      "note_off channel=0 note=85 velocity=0 time=0\n",
      "note_off channel=0 note=61 velocity=0 time=0\n",
      "note_off channel=0 note=102 velocity=0 time=0\n",
      "note_off channel=0 note=91 velocity=0 time=0\n",
      "note_off channel=0 note=97 velocity=0 time=0\n",
      "note_off channel=0 note=60 velocity=0 time=85\n",
      "note_off channel=0 note=61 velocity=0 time=0\n",
      "note_off channel=0 note=102 velocity=0 time=0\n",
      "note_off channel=0 note=93 velocity=0 time=0\n",
      "note_on channel=0 note=61 velocity=33 time=86\n",
      "note_on channel=0 note=101 velocity=22 time=0\n",
      "note_on channel=0 note=100 velocity=21 time=0\n",
      "note_on channel=0 note=98 velocity=17 time=0\n",
      "note_on channel=0 note=62 velocity=29 time=0\n",
      "note_on channel=0 note=96 velocity=18 time=0\n",
      "note_on channel=0 note=82 velocity=29 time=0\n",
      "note_on channel=0 note=83 velocity=27 time=0\n",
      "note_on channel=0 note=70 velocity=20 time=0\n",
      "note_on channel=0 note=90 velocity=13 time=85\n",
      "note_on channel=0 note=61 velocity=28 time=0\n",
      "note_on channel=0 note=83 velocity=27 time=0\n",
      "note_on channel=0 note=70 velocity=20 time=0\n",
      "note_on channel=0 note=94 velocity=20 time=0\n",
      "note_on channel=0 note=96 velocity=10 time=0\n",
      "note_off channel=0 note=89 velocity=0 time=85\n",
      "note_off channel=0 note=73 velocity=0 time=0\n",
      "note_off channel=0 note=61 velocity=0 time=86\n",
      "note_off channel=0 note=101 velocity=0 time=0\n",
      "note_off channel=0 note=100 velocity=0 time=0\n",
      "note_off channel=0 note=98 velocity=0 time=0\n",
      "note_off channel=0 note=62 velocity=0 time=0\n",
      "note_off channel=0 note=96 velocity=0 time=0\n",
      "note_off channel=0 note=82 velocity=0 time=0\n",
      "note_off channel=0 note=83 velocity=0 time=0\n",
      "note_off channel=0 note=70 velocity=0 time=0\n",
      "note_off channel=0 note=68 velocity=0 time=85\n",
      "note_off channel=0 note=75 velocity=0 time=0\n",
      "note_off channel=0 note=90 velocity=0 time=0\n",
      "note_off channel=0 note=61 velocity=0 time=0\n",
      "note_off channel=0 note=83 velocity=0 time=0\n",
      "note_off channel=0 note=70 velocity=0 time=0\n",
      "note_off channel=0 note=94 velocity=0 time=0\n",
      "note_off channel=0 note=96 velocity=0 time=0\n",
      "note_on channel=0 note=82 velocity=35 time=0\n",
      "note_on channel=0 note=77 velocity=30 time=0\n",
      "note_on channel=0 note=92 velocity=20 time=0\n",
      "note_on channel=0 note=58 velocity=29 time=0\n",
      "note_on channel=0 note=70 velocity=51 time=0\n",
      "note_on channel=0 note=84 velocity=13 time=0\n",
      "note_on channel=0 note=75 velocity=20 time=0\n",
      "note_on channel=0 note=89 velocity=30 time=0\n",
      "note_on channel=0 note=60 velocity=26 time=0\n",
      "note_on channel=0 note=69 velocity=46 time=0\n",
      "note_on channel=0 note=73 velocity=23 time=0\n",
      "note_on channel=0 note=92 velocity=20 time=0\n",
      "note_on channel=0 note=58 velocity=29 time=0\n",
      "note_on channel=0 note=70 velocity=51 time=0\n",
      "note_on channel=0 note=75 velocity=20 time=0\n",
      "note_on channel=0 note=89 velocity=30 time=0\n",
      "note_on channel=0 note=86 velocity=37 time=0\n",
      "note_on channel=0 note=96 velocity=23 time=0\n",
      "note_on channel=0 note=68 velocity=51 time=0\n",
      "note_on channel=0 note=61 velocity=43 time=0\n",
      "note_off channel=0 note=82 velocity=0 time=256\n",
      "note_off channel=0 note=77 velocity=0 time=0\n",
      "note_off channel=0 note=92 velocity=0 time=0\n",
      "note_off channel=0 note=58 velocity=0 time=0\n",
      "note_off channel=0 note=70 velocity=0 time=0\n",
      "note_off channel=0 note=84 velocity=0 time=0\n",
      "note_off channel=0 note=75 velocity=0 time=0\n",
      "note_off channel=0 note=89 velocity=0 time=0\n",
      "note_off channel=0 note=60 velocity=0 time=0\n",
      "note_off channel=0 note=69 velocity=0 time=0\n",
      "note_off channel=0 note=73 velocity=0 time=0\n",
      "note_off channel=0 note=92 velocity=0 time=0\n",
      "note_off channel=0 note=58 velocity=0 time=0\n",
      "note_off channel=0 note=70 velocity=0 time=0\n",
      "note_off channel=0 note=75 velocity=0 time=0\n",
      "note_off channel=0 note=89 velocity=0 time=0\n",
      "note_on channel=0 note=92 velocity=27 time=85\n",
      "note_on channel=0 note=82 velocity=30 time=0\n",
      "note_on channel=0 note=77 velocity=29 time=0\n",
      "note_on channel=0 note=70 velocity=39 time=0\n",
      "note_on channel=0 note=102 velocity=19 time=0\n",
      "note_on channel=0 note=93 velocity=19 time=171\n",
      "note_off channel=0 note=92 velocity=0 time=85\n",
      "note_off channel=0 note=82 velocity=0 time=0\n",
      "note_off channel=0 note=77 velocity=0 time=0\n",
      "note_off channel=0 note=70 velocity=0 time=0\n",
      "note_off channel=0 note=102 velocity=0 time=0\n",
      "note_off channel=0 note=86 velocity=0 time=86\n",
      "note_off channel=0 note=96 velocity=0 time=0\n",
      "note_off channel=0 note=68 velocity=0 time=0\n",
      "note_on channel=0 note=75 velocity=23 time=85\n",
      "note_on channel=0 note=90 velocity=17 time=0\n",
      "note_on channel=0 note=91 velocity=15 time=0\n",
      "note_on channel=0 note=70 velocity=29 time=0\n",
      "note_on channel=0 note=81 velocity=12 time=0\n",
      "note_on channel=0 note=70 velocity=16 time=0\n",
      "note_off channel=0 note=61 velocity=0 time=256\n",
      "note_off channel=0 note=75 velocity=0 time=0\n",
      "note_off channel=0 note=90 velocity=0 time=0\n",
      "note_off channel=0 note=91 velocity=0 time=0\n",
      "note_off channel=0 note=70 velocity=0 time=0\n",
      "note_off channel=0 note=81 velocity=0 time=0\n",
      "note_off channel=0 note=70 velocity=0 time=0\n",
      "note_on channel=0 note=96 velocity=18 time=0\n",
      "note_on channel=0 note=68 velocity=20 time=0\n",
      "note_on channel=0 note=70 velocity=16 time=0\n",
      "note_on channel=0 note=79 velocity=12 time=0\n",
      "note_on channel=0 note=61 velocity=42 time=0\n",
      "note_off channel=0 note=93 velocity=0 time=256\n",
      "note_off channel=0 note=96 velocity=0 time=0\n",
      "note_off channel=0 note=68 velocity=0 time=0\n",
      "note_off channel=0 note=70 velocity=0 time=0\n",
      "note_off channel=0 note=79 velocity=0 time=0\n",
      "note_off channel=0 note=61 velocity=0 time=0\n",
      "note_on channel=0 note=72 velocity=51 time=0\n",
      "note_on channel=0 note=61 velocity=42 time=0\n",
      "note_on channel=0 note=89 velocity=10 time=0\n",
      "note_on channel=0 note=60 velocity=51 time=0\n",
      "note_on channel=0 note=75 velocity=11 time=0\n",
      "note_on channel=0 note=61 velocity=36 time=0\n",
      "note_on channel=0 note=77 velocity=11 time=0\n",
      "note_on channel=0 note=60 velocity=50 time=0\n",
      "note_on channel=0 note=88 velocity=22 time=0\n",
      "note_on channel=0 note=79 velocity=33 time=0\n",
      "note_on channel=0 note=98 velocity=37 time=0\n",
      "note_on channel=0 note=103 velocity=39 time=0\n",
      "note_on channel=0 note=93 velocity=22 time=0\n",
      "note_on channel=0 note=96 velocity=36 time=0\n",
      "note_on channel=0 note=68 velocity=50 time=0\n",
      "note_on channel=0 note=103 velocity=39 time=0\n",
      "note_off channel=0 note=72 velocity=0 time=256\n",
      "note_off channel=0 note=61 velocity=0 time=0\n",
      "note_off channel=0 note=89 velocity=0 time=0\n",
      "note_off channel=0 note=60 velocity=0 time=0\n",
      "note_off channel=0 note=75 velocity=0 time=0\n",
      "note_off channel=0 note=61 velocity=0 time=0\n",
      "note_off channel=0 note=77 velocity=0 time=0\n",
      "note_off channel=0 note=60 velocity=0 time=0\n",
      "note_on channel=0 note=101 velocity=13 time=0\n",
      "note_on channel=0 note=61 velocity=57 time=0\n",
      "note_on channel=0 note=60 velocity=41 time=0\n",
      "note_on channel=0 note=72 velocity=43 time=0\n",
      "note_on channel=0 note=89 velocity=23 time=0\n",
      "note_on channel=0 note=61 velocity=57 time=0\n",
      "note_on channel=0 note=101 velocity=23 time=0\n",
      "note_on channel=0 note=85 velocity=21 time=0\n",
      "note_on channel=0 note=60 velocity=41 time=0\n",
      "note_on channel=0 note=61 velocity=29 time=0\n",
      "note_off channel=0 note=88 velocity=0 time=85\n",
      "note_off channel=0 note=79 velocity=0 time=0\n",
      "note_off channel=0 note=98 velocity=0 time=0\n",
      "note_off channel=0 note=103 velocity=0 time=0\n",
      "note_off channel=0 note=93 velocity=0 time=0\n",
      "note_off channel=0 note=96 velocity=0 time=0\n",
      "note_off channel=0 note=101 velocity=0 time=171\n",
      "note_off channel=0 note=61 velocity=0 time=0\n",
      "note_off channel=0 note=60 velocity=0 time=0\n",
      "note_off channel=0 note=72 velocity=0 time=0\n",
      "note_off channel=0 note=89 velocity=0 time=0\n",
      "note_off channel=0 note=61 velocity=0 time=0\n",
      "note_off channel=0 note=101 velocity=0 time=0\n",
      "note_off channel=0 note=85 velocity=0 time=0\n",
      "note_off channel=0 note=60 velocity=0 time=0\n",
      "note_off channel=0 note=61 velocity=0 time=0\n",
      "note_on channel=0 note=60 velocity=37 time=0\n",
      "note_on channel=0 note=73 velocity=11 time=0\n",
      "note_on channel=0 note=88 velocity=17 time=0\n",
      "note_on channel=0 note=61 velocity=30 time=0\n",
      "note_on channel=0 note=72 velocity=25 time=0\n",
      "note_on channel=0 note=82 velocity=22 time=0\n",
      "note_on channel=0 note=87 velocity=14 time=0\n",
      "note_on channel=0 note=91 velocity=9 time=0\n",
      "note_on channel=0 note=61 velocity=40 time=0\n",
      "note_on channel=0 note=75 velocity=13 time=0\n",
      "note_off channel=0 note=68 velocity=0 time=256\n",
      "note_off channel=0 note=103 velocity=0 time=0\n",
      "note_off channel=0 note=60 velocity=0 time=0\n",
      "note_off channel=0 note=73 velocity=0 time=0\n",
      "note_off channel=0 note=88 velocity=0 time=0\n",
      "note_off channel=0 note=61 velocity=0 time=0\n",
      "note_off channel=0 note=72 velocity=0 time=0\n",
      "note_off channel=0 note=82 velocity=0 time=0\n",
      "note_off channel=0 note=87 velocity=0 time=0\n",
      "note_off channel=0 note=91 velocity=0 time=0\n",
      "note_off channel=0 note=61 velocity=0 time=0\n",
      "note_off channel=0 note=75 velocity=0 time=0\n",
      "note_on channel=0 note=96 velocity=21 time=0\n",
      "note_on channel=0 note=82 velocity=22 time=0\n",
      "note_on channel=0 note=87 velocity=14 time=0\n",
      "note_on channel=0 note=91 velocity=9 time=0\n",
      "note_on channel=0 note=61 velocity=40 time=0\n",
      "note_on channel=0 note=75 velocity=13 time=0\n",
      "note_on channel=0 note=85 velocity=11 time=0\n",
      "note_on channel=0 note=89 velocity=18 time=0\n",
      "note_on channel=0 note=93 velocity=14 time=0\n",
      "note_on channel=0 note=75 velocity=11 time=0\n",
      "note_on channel=0 note=82 velocity=61 time=0\n",
      "note_on channel=0 note=87 velocity=37 time=0\n",
      "note_on channel=0 note=68 velocity=48 time=0\n",
      "note_off channel=0 note=96 velocity=0 time=256\n",
      "note_off channel=0 note=82 velocity=0 time=0\n",
      "note_off channel=0 note=87 velocity=0 time=0\n",
      "note_off channel=0 note=91 velocity=0 time=0\n",
      "note_off channel=0 note=61 velocity=0 time=0\n",
      "note_off channel=0 note=75 velocity=0 time=0\n",
      "note_off channel=0 note=85 velocity=0 time=0\n",
      "note_off channel=0 note=89 velocity=0 time=0\n",
      "note_off channel=0 note=93 velocity=0 time=0\n",
      "note_off channel=0 note=75 velocity=0 time=0\n",
      "note_on channel=0 note=61 velocity=44 time=0\n",
      "note_on channel=0 note=62 velocity=59 time=0\n",
      "note_on channel=0 note=97 velocity=24 time=0\n",
      "note_on channel=0 note=61 velocity=41 time=0\n",
      "note_on channel=0 note=63 velocity=39 time=0\n",
      "note_on channel=0 note=75 velocity=60 time=0\n",
      "note_on channel=0 note=103 velocity=44 time=0\n",
      "note_on channel=0 note=91 velocity=18 time=0\n",
      "note_on channel=0 note=103 velocity=44 time=0\n",
      "note_on channel=0 note=97 velocity=24 time=0\n",
      "note_on channel=0 note=61 velocity=41 time=0\n",
      "note_on channel=0 note=63 velocity=39 time=0\n",
      "note_off channel=0 note=61 velocity=0 time=256\n",
      "note_off channel=0 note=62 velocity=0 time=0\n",
      "note_off channel=0 note=97 velocity=0 time=0\n",
      "note_off channel=0 note=61 velocity=0 time=0\n",
      "note_off channel=0 note=63 velocity=0 time=0\n",
      "note_off channel=0 note=91 velocity=0 time=0\n",
      "note_off channel=0 note=103 velocity=0 time=0\n",
      "note_off channel=0 note=97 velocity=0 time=0\n",
      "note_off channel=0 note=61 velocity=0 time=0\n",
      "note_off channel=0 note=63 velocity=0 time=0\n",
      "note_on channel=0 note=63 velocity=35 time=0\n",
      "note_on channel=0 note=93 velocity=15 time=0\n",
      "note_on channel=0 note=62 velocity=39 time=0\n",
      "note_on channel=0 note=89 velocity=11 time=0\n",
      "note_on channel=0 note=96 velocity=25 time=0\n",
      "note_on channel=0 note=89 velocity=11 time=0\n",
      "note_on channel=0 note=61 velocity=53 time=171\n",
      "note_off channel=0 note=75 velocity=0 time=85\n",
      "note_off channel=0 note=103 velocity=0 time=0\n",
      "note_off channel=0 note=63 velocity=0 time=0\n",
      "note_off channel=0 note=93 velocity=0 time=0\n",
      "note_off channel=0 note=62 velocity=0 time=0\n",
      "note_off channel=0 note=89 velocity=0 time=0\n",
      "note_off channel=0 note=96 velocity=0 time=0\n",
      "note_off channel=0 note=89 velocity=0 time=0\n",
      "note_on channel=0 note=101 velocity=25 time=0\n",
      "note_on channel=0 note=103 velocity=27 time=0\n",
      "note_on channel=0 note=89 velocity=12 time=0\n",
      "note_on channel=0 note=92 velocity=11 time=0\n",
      "note_off channel=0 note=82 velocity=0 time=256\n",
      "note_off channel=0 note=87 velocity=0 time=0\n",
      "note_off channel=0 note=68 velocity=0 time=0\n",
      "note_off channel=0 note=101 velocity=0 time=0\n",
      "note_off channel=0 note=103 velocity=0 time=0\n",
      "note_off channel=0 note=89 velocity=0 time=0\n",
      "note_off channel=0 note=92 velocity=0 time=0\n",
      "note_on channel=0 note=93 velocity=27 time=0\n",
      "note_on channel=0 note=75 velocity=23 time=0\n",
      "note_on channel=0 note=91 velocity=16 time=0\n",
      "note_off channel=0 note=75 velocity=0 time=256\n",
      "note_off channel=0 note=91 velocity=0 time=0\n",
      "note_on channel=0 note=91 velocity=18 time=0\n",
      "note_on channel=0 note=77 velocity=45 time=0\n",
      "note_on channel=0 note=96 velocity=27 time=0\n",
      "note_on channel=0 note=84 velocity=49 time=0\n",
      "note_on channel=0 note=68 velocity=44 time=0\n",
      "note_on channel=0 note=73 velocity=32 time=0\n",
      "note_on channel=0 note=103 velocity=25 time=0\n",
      "note_on channel=0 note=61 velocity=48 time=0\n",
      "note_on channel=0 note=75 velocity=19 time=0\n",
      "note_on channel=0 note=83 velocity=36 time=85\n",
      "note_on channel=0 note=62 velocity=44 time=0\n",
      "note_on channel=0 note=65 velocity=30 time=0\n",
      "note_off channel=0 note=61 velocity=0 time=1\n",
      "note_on channel=0 note=65 velocity=40 time=170\n",
      "note_on channel=0 note=101 velocity=26 time=0\n",
      "note_on channel=0 note=66 velocity=57 time=0\n",
      "note_on channel=0 note=102 velocity=20 time=0\n",
      "note_on channel=0 note=100 velocity=19 time=0\n",
      "note_off channel=0 note=83 velocity=0 time=85\n",
      "note_off channel=0 note=62 velocity=0 time=0\n",
      "note_off channel=0 note=65 velocity=0 time=0\n",
      "note_on channel=0 note=82 velocity=42 time=86\n",
      "note_on channel=0 note=85 velocity=36 time=0\n",
      "note_on channel=0 note=87 velocity=24 time=0\n",
      "note_on channel=0 note=67 velocity=74 time=0\n",
      "note_on channel=0 note=89 velocity=16 time=0\n",
      "note_on channel=0 note=90 velocity=21 time=0\n",
      "note_on channel=0 note=95 velocity=18 time=0\n",
      "note_on channel=0 note=86 velocity=20 time=0\n",
      "note_off channel=0 note=91 velocity=0 time=85\n",
      "note_off channel=0 note=77 velocity=0 time=0\n",
      "note_off channel=0 note=96 velocity=0 time=0\n",
      "note_off channel=0 note=84 velocity=0 time=0\n",
      "note_off channel=0 note=68 velocity=0 time=0\n",
      "note_off channel=0 note=73 velocity=0 time=0\n",
      "note_off channel=0 note=103 velocity=0 time=0\n",
      "note_off channel=0 note=61 velocity=0 time=0\n",
      "note_off channel=0 note=75 velocity=0 time=0\n",
      "note_off channel=0 note=65 velocity=0 time=0\n",
      "note_off channel=0 note=101 velocity=0 time=0\n",
      "note_off channel=0 note=66 velocity=0 time=0\n",
      "note_off channel=0 note=102 velocity=0 time=0\n",
      "note_off channel=0 note=100 velocity=0 time=0\n",
      "note_on channel=0 note=101 velocity=23 time=0\n",
      "note_on channel=0 note=86 velocity=20 time=0\n",
      "note_on channel=0 note=86 velocity=21 time=0\n",
      "note_on channel=0 note=90 velocity=12 time=0\n",
      "note_on channel=0 note=96 velocity=30 time=0\n",
      "note_on channel=0 note=74 velocity=20 time=0\n",
      "note_off channel=0 note=85 velocity=0 time=171\n",
      "note_off channel=0 note=87 velocity=0 time=0\n",
      "note_off channel=0 note=67 velocity=0 time=0\n",
      "note_off channel=0 note=89 velocity=0 time=0\n",
      "note_off channel=0 note=90 velocity=0 time=0\n",
      "note_off channel=0 note=95 velocity=0 time=0\n",
      "note_off channel=0 note=86 velocity=0 time=0\n",
      "note_off channel=0 note=93 velocity=0 time=85\n",
      "note_off channel=0 note=101 velocity=0 time=0\n",
      "note_off channel=0 note=86 velocity=0 time=0\n",
      "note_off channel=0 note=86 velocity=0 time=0\n",
      "note_off channel=0 note=90 velocity=0 time=0\n",
      "note_off channel=0 note=96 velocity=0 time=0\n",
      "note_off channel=0 note=74 velocity=0 time=0\n",
      "note_on channel=0 note=87 velocity=41 time=0\n",
      "note_on channel=0 note=80 velocity=57 time=0\n",
      "note_on channel=0 note=61 velocity=46 time=0\n",
      "note_on channel=0 note=68 velocity=84 time=0\n",
      "note_on channel=0 note=91 velocity=17 time=0\n",
      "note_on channel=0 note=101 velocity=19 time=0\n",
      "note_on channel=0 note=95 velocity=18 time=0\n",
      "note_on channel=0 note=61 velocity=41 time=0\n",
      "note_on channel=0 note=89 velocity=13 time=0\n",
      "note_on channel=0 note=96 velocity=19 time=0\n",
      "note_off channel=0 note=87 velocity=0 time=256\n",
      "note_off channel=0 note=80 velocity=0 time=0\n",
      "note_off channel=0 note=61 velocity=0 time=0\n",
      "note_off channel=0 note=68 velocity=0 time=0\n",
      "note_off channel=0 note=91 velocity=0 time=0\n",
      "note_off channel=0 note=101 velocity=0 time=0\n",
      "note_off channel=0 note=95 velocity=0 time=0\n",
      "note_off channel=0 note=61 velocity=0 time=0\n",
      "note_off channel=0 note=89 velocity=0 time=0\n",
      "note_off channel=0 note=96 velocity=0 time=0\n",
      "note_on channel=0 note=73 velocity=27 time=0\n",
      "note_on channel=0 note=77 velocity=10 time=0\n",
      "note_on channel=0 note=86 velocity=25 time=0\n",
      "note_on channel=0 note=79 velocity=30 time=256\n",
      "note_on channel=0 note=91 velocity=33 time=0\n",
      "note_on channel=0 note=67 velocity=74 time=0\n",
      "note_on channel=0 note=75 velocity=9 time=0\n",
      "note_on channel=0 note=61 velocity=35 time=0\n",
      "note_on channel=0 note=68 velocity=66 time=0\n",
      "note_on channel=0 note=67 velocity=65 time=0\n",
      "note_on channel=0 note=61 velocity=33 time=0\n",
      "note_on channel=0 note=67 velocity=74 time=0\n",
      "note_on channel=0 note=75 velocity=9 time=0\n",
      "note_on channel=0 note=68 velocity=66 time=0\n",
      "note_on channel=0 note=67 velocity=65 time=0\n",
      "note_off channel=0 note=73 velocity=0 time=85\n",
      "note_off channel=0 note=77 velocity=0 time=0\n",
      "note_off channel=0 note=86 velocity=0 time=0\n",
      "note_on channel=0 note=67 velocity=63 time=86\n",
      "note_on channel=0 note=68 velocity=56 time=0\n",
      "note_on channel=0 note=93 velocity=11 time=0\n",
      "note_on channel=0 note=87 velocity=10 time=0\n",
      "note_off channel=0 note=79 velocity=0 time=85\n",
      "note_off channel=0 note=91 velocity=0 time=0\n",
      "note_off channel=0 note=67 velocity=0 time=0\n",
      "note_off channel=0 note=75 velocity=0 time=0\n",
      "note_off channel=0 note=61 velocity=0 time=0\n",
      "note_off channel=0 note=68 velocity=0 time=0\n",
      "note_off channel=0 note=67 velocity=0 time=0\n",
      "note_off channel=0 note=61 velocity=0 time=0\n",
      "note_off channel=0 note=67 velocity=0 time=0\n",
      "note_off channel=0 note=75 velocity=0 time=0\n",
      "note_off channel=0 note=68 velocity=0 time=0\n",
      "note_off channel=0 note=67 velocity=0 time=0\n",
      "note_on channel=0 note=78 velocity=41 time=0\n",
      "note_on channel=0 note=66 velocity=67 time=0\n",
      "note_on channel=0 note=90 velocity=41 time=0\n",
      "note_on channel=0 note=85 velocity=34 time=0\n",
      "note_on channel=0 note=75 velocity=10 time=0\n",
      "note_on channel=0 note=100 velocity=20 time=0\n",
      "note_on channel=0 note=61 velocity=21 time=0\n",
      "note_off channel=0 note=67 velocity=0 time=171\n",
      "note_off channel=0 note=68 velocity=0 time=0\n",
      "note_off channel=0 note=93 velocity=0 time=0\n",
      "note_off channel=0 note=87 velocity=0 time=0\n",
      "note_off channel=0 note=90 velocity=0 time=85\n",
      "note_off channel=0 note=85 velocity=0 time=0\n",
      "note_off channel=0 note=75 velocity=0 time=0\n",
      "note_off channel=0 note=100 velocity=0 time=0\n",
      "note_off channel=0 note=61 velocity=0 time=0\n",
      "note_on channel=0 note=77 velocity=12 time=0\n",
      "note_off channel=0 note=82 velocity=0 time=171\n",
      "note_off channel=0 note=77 velocity=0 time=85\n",
      "note_on channel=0 note=85 velocity=24 time=0\n",
      "note_on channel=0 note=61 velocity=24 time=0\n",
      "note_off channel=0 note=85 velocity=0 time=256\n",
      "note_off channel=0 note=61 velocity=0 time=0\n",
      "note_on channel=0 note=61 velocity=45 time=0\n",
      "note_on channel=0 note=67 velocity=32 time=0\n",
      "note_off channel=0 note=78 velocity=0 time=256\n",
      "note_off channel=0 note=66 velocity=0 time=0\n",
      "note_off channel=0 note=61 velocity=0 time=0\n",
      "note_off channel=0 note=67 velocity=0 time=0\n",
      "note_on channel=0 note=68 velocity=39 time=0\n",
      "note_on channel=0 note=97 velocity=19 time=0\n",
      "note_on channel=0 note=73 velocity=14 time=0\n",
      "note_on channel=0 note=78 velocity=45 time=0\n",
      "note_on channel=0 note=66 velocity=62 time=0\n",
      "note_on channel=0 note=85 velocity=32 time=0\n",
      "note_off channel=0 note=68 velocity=0 time=256\n",
      "note_off channel=0 note=97 velocity=0 time=0\n",
      "note_off channel=0 note=73 velocity=0 time=0\n",
      "note_on channel=0 note=94 velocity=18 time=0\n",
      "note_on channel=0 note=73 velocity=14 time=0\n",
      "note_on channel=0 note=61 velocity=31 time=0\n",
      "note_on channel=0 note=100 velocity=9 time=0\n",
      "note_on channel=0 note=77 velocity=10 time=0\n",
      "note_on channel=0 note=82 velocity=40 time=0\n",
      "note_off channel=0 note=94 velocity=0 time=256\n",
      "note_off channel=0 note=73 velocity=0 time=0\n",
      "note_off channel=0 note=61 velocity=0 time=0\n",
      "note_off channel=0 note=100 velocity=0 time=0\n",
      "note_off channel=0 note=77 velocity=0 time=0\n",
      "note_on channel=0 note=60 velocity=38 time=0\n",
      "note_on channel=0 note=89 velocity=14 time=0\n",
      "note_on channel=0 note=66 velocity=61 time=0\n",
      "note_on channel=0 note=61 velocity=51 time=85\n",
      "note_on channel=0 note=89 velocity=14 time=0\n",
      "note_on channel=0 note=66 velocity=61 time=0\n",
      "note_on channel=0 note=66 velocity=53 time=0\n",
      "note_off channel=0 note=78 velocity=0 time=86\n",
      "note_off channel=0 note=66 velocity=0 time=0\n",
      "note_off channel=0 note=85 velocity=0 time=0\n",
      "note_off channel=0 note=60 velocity=0 time=85\n",
      "note_off channel=0 note=89 velocity=0 time=0\n",
      "note_off channel=0 note=66 velocity=0 time=0\n",
      "note_on channel=0 note=68 velocity=48 time=0\n",
      "note_on channel=0 note=77 velocity=18 time=0\n",
      "note_on channel=0 note=84 velocity=33 time=0\n",
      "note_on channel=0 note=60 velocity=29 time=0\n",
      "note_on channel=0 note=101 velocity=11 time=0\n",
      "note_on channel=0 note=93 velocity=13 time=0\n",
      "note_on channel=0 note=61 velocity=42 time=0\n",
      "note_on channel=0 note=103 velocity=12 time=0\n",
      "note_on channel=0 note=65 velocity=29 time=0\n",
      "note_on channel=0 note=60 velocity=29 time=0\n",
      "note_on channel=0 note=101 velocity=11 time=0\n",
      "note_off channel=0 note=61 velocity=0 time=85\n",
      "note_off channel=0 note=89 velocity=0 time=0\n",
      "note_off channel=0 note=66 velocity=0 time=0\n",
      "note_off channel=0 note=66 velocity=0 time=0\n",
      "note_off channel=0 note=77 velocity=0 time=171\n",
      "note_off channel=0 note=84 velocity=0 time=0\n",
      "note_off channel=0 note=60 velocity=0 time=0\n",
      "note_off channel=0 note=101 velocity=0 time=0\n",
      "note_off channel=0 note=93 velocity=0 time=0\n",
      "note_off channel=0 note=61 velocity=0 time=0\n",
      "note_off channel=0 note=103 velocity=0 time=0\n",
      "note_off channel=0 note=65 velocity=0 time=0\n",
      "note_off channel=0 note=60 velocity=0 time=0\n",
      "note_off channel=0 note=101 velocity=0 time=0\n",
      "note_off channel=0 note=82 velocity=0 time=256\n",
      "note_on channel=0 note=64 velocity=33 time=0\n",
      "note_on channel=0 note=73 velocity=15 time=0\n",
      "note_on channel=0 note=75 velocity=20 time=0\n",
      "note_on channel=0 note=77 velocity=35 time=0\n",
      "note_on channel=0 note=93 velocity=18 time=0\n",
      "note_on channel=0 note=65 velocity=32 time=0\n",
      "note_on channel=0 note=93 velocity=10 time=0\n",
      "note_on channel=0 note=65 velocity=18 time=0\n",
      "note_on channel=0 note=84 velocity=50 time=0\n",
      "note_on channel=0 note=61 velocity=32 time=0\n",
      "note_on channel=0 note=82 velocity=40 time=0\n",
      "note_off channel=0 note=64 velocity=0 time=256\n",
      "note_off channel=0 note=73 velocity=0 time=0\n",
      "note_off channel=0 note=75 velocity=0 time=0\n",
      "note_off channel=0 note=77 velocity=0 time=0\n",
      "note_off channel=0 note=93 velocity=0 time=0\n",
      "note_off channel=0 note=65 velocity=0 time=0\n",
      "note_off channel=0 note=93 velocity=0 time=0\n",
      "note_off channel=0 note=65 velocity=0 time=0\n",
      "note_on channel=0 note=101 velocity=17 time=0\n",
      "note_on channel=0 note=65 velocity=39 time=0\n",
      "note_off channel=0 note=101 velocity=0 time=256\n",
      "note_off channel=0 note=65 velocity=0 time=0\n",
      "note_on channel=0 note=103 velocity=16 time=0\n",
      "note_on channel=0 note=65 velocity=20 time=0\n",
      "note_on channel=0 note=77 velocity=24 time=0\n",
      "note_on channel=0 note=84 velocity=28 time=0\n",
      "note_on channel=0 note=62 velocity=30 time=0\n",
      "note_off channel=0 note=84 velocity=0 time=171\n",
      "note_off channel=0 note=61 velocity=0 time=0\n",
      "note_off channel=0 note=103 velocity=0 time=85\n",
      "note_off channel=0 note=65 velocity=0 time=0\n",
      "note_off channel=0 note=77 velocity=0 time=0\n",
      "note_off channel=0 note=84 velocity=0 time=0\n",
      "note_off channel=0 note=62 velocity=0 time=0\n",
      "note_on channel=0 note=61 velocity=26 time=0\n",
      "note_on channel=0 note=64 velocity=28 time=0\n",
      "note_on channel=0 note=85 velocity=9 time=0\n",
      "note_on channel=0 note=87 velocity=9 time=0\n",
      "note_off channel=0 note=68 velocity=0 time=256\n",
      "note_off channel=0 note=82 velocity=0 time=0\n",
      "note_off channel=0 note=61 velocity=0 time=0\n",
      "note_off channel=0 note=64 velocity=0 time=0\n",
      "note_off channel=0 note=85 velocity=0 time=0\n",
      "note_off channel=0 note=87 velocity=0 time=0\n",
      "note_on channel=0 note=83 velocity=18 time=0\n",
      "note_on channel=0 note=63 velocity=54 time=0\n",
      "note_on channel=0 note=82 velocity=59 time=0\n",
      "note_on channel=0 note=91 velocity=27 time=0\n",
      "note_on channel=0 note=97 velocity=17 time=0\n",
      "note_on channel=0 note=101 velocity=27 time=0\n",
      "note_on channel=0 note=75 velocity=62 time=0\n",
      "note_on channel=0 note=68 velocity=46 time=0\n",
      "note_on channel=0 note=91 velocity=27 time=0\n",
      "note_on channel=0 note=103 velocity=45 time=0\n",
      "note_on channel=0 note=73 velocity=29 time=0\n",
      "note_off channel=0 note=83 velocity=0 time=256\n",
      "note_off channel=0 note=63 velocity=0 time=256\n",
      "note_off channel=0 note=82 velocity=0 time=0\n",
      "note_off channel=0 note=91 velocity=0 time=0\n",
      "note_off channel=0 note=97 velocity=0 time=0\n",
      "note_off channel=0 note=101 velocity=0 time=0\n",
      "note_on channel=0 note=63 velocity=40 time=0\n",
      "note_on channel=0 note=82 velocity=52 time=0\n",
      "note_on channel=0 note=96 velocity=24 time=0\n",
      "note_off channel=0 note=75 velocity=0 time=256\n",
      "note_off channel=0 note=68 velocity=0 time=0\n",
      "note_off channel=0 note=91 velocity=0 time=0\n",
      "note_off channel=0 note=103 velocity=0 time=0\n",
      "note_off channel=0 note=73 velocity=0 time=0\n",
      "note_off channel=0 note=63 velocity=0 time=0\n",
      "note_off channel=0 note=82 velocity=0 time=0\n",
      "note_off channel=0 note=96 velocity=0 time=0\n",
      "note_on channel=0 note=61 velocity=43 time=0\n",
      "note_on channel=0 note=97 velocity=24 time=0\n",
      "note_on channel=0 note=61 velocity=40 time=0\n",
      "note_on channel=0 note=75 velocity=12 time=0\n",
      "note_off channel=0 note=61 velocity=0 time=256\n",
      "note_off channel=0 note=97 velocity=0 time=0\n",
      "note_off channel=0 note=61 velocity=0 time=0\n",
      "note_off channel=0 note=75 velocity=0 time=0\n",
      "note_on channel=0 note=82 velocity=24 time=0\n",
      "note_on channel=0 note=61 velocity=59 time=0\n",
      "note_on channel=0 note=99 velocity=18 time=0\n",
      "note_on channel=0 note=101 velocity=21 time=0\n",
      "note_on channel=0 note=102 velocity=21 time=0\n",
      "note_off channel=0 note=82 velocity=0 time=256\n",
      "note_off channel=0 note=61 velocity=0 time=0\n",
      "note_off channel=0 note=99 velocity=0 time=0\n",
      "note_off channel=0 note=101 velocity=0 time=0\n",
      "note_off channel=0 note=102 velocity=0 time=0\n",
      "note_on channel=0 note=68 velocity=50 time=0\n",
      "note_on channel=0 note=73 velocity=60 time=0\n",
      "note_on channel=0 note=89 velocity=18 time=0\n",
      "note_on channel=0 note=79 velocity=31 time=0\n",
      "note_on channel=0 note=96 velocity=26 time=0\n",
      "note_on channel=0 note=94 velocity=30 time=0\n",
      "note_on channel=0 note=60 velocity=51 time=85\n",
      "note_on channel=0 note=61 velocity=37 time=0\n",
      "note_on channel=0 note=99 velocity=10 time=0\n",
      "note_on channel=0 note=60 velocity=46 time=0\n",
      "note_on channel=0 note=75 velocity=20 time=0\n",
      "note_on channel=0 note=82 velocity=39 time=0\n",
      "note_on channel=0 note=93 velocity=19 time=171\n",
      "note_on channel=0 note=98 velocity=26 time=0\n",
      "note_on channel=0 note=60 velocity=46 time=0\n",
      "note_on channel=0 note=84 velocity=13 time=0\n",
      "note_on channel=0 note=60 velocity=45 time=0\n",
      "note_on channel=0 note=100 velocity=14 time=0\n",
      "note_on channel=0 note=61 velocity=32 time=0\n",
      "note_off channel=0 note=60 velocity=0 time=85\n",
      "note_off channel=0 note=61 velocity=0 time=0\n",
      "note_off channel=0 note=99 velocity=0 time=0\n",
      "note_off channel=0 note=60 velocity=0 time=0\n",
      "note_on channel=0 note=92 velocity=13 time=86\n",
      "note_off channel=0 note=68 velocity=0 time=85\n",
      "note_off channel=0 note=73 velocity=0 time=0\n",
      "note_off channel=0 note=89 velocity=0 time=0\n",
      "note_off channel=0 note=79 velocity=0 time=0\n",
      "note_off channel=0 note=96 velocity=0 time=0\n",
      "note_off channel=0 note=94 velocity=0 time=0\n",
      "note_off channel=0 note=93 velocity=0 time=0\n",
      "note_off channel=0 note=98 velocity=0 time=0\n",
      "note_off channel=0 note=60 velocity=0 time=0\n",
      "note_off channel=0 note=84 velocity=0 time=0\n",
      "note_off channel=0 note=60 velocity=0 time=0\n",
      "note_off channel=0 note=100 velocity=0 time=0\n",
      "note_off channel=0 note=61 velocity=0 time=0\n",
      "note_on channel=0 note=78 velocity=20 time=256\n",
      "note_on channel=0 note=93 velocity=9 time=0\n",
      "note_on channel=0 note=61 velocity=40 time=0\n",
      "note_on channel=0 note=60 velocity=52 time=0\n",
      "note_on channel=0 note=61 velocity=34 time=0\n",
      "note_on channel=0 note=72 velocity=49 time=0\n",
      "note_on channel=0 note=88 velocity=26 time=0\n",
      "note_on channel=0 note=79 velocity=46 time=0\n",
      "note_on channel=0 note=98 velocity=39 time=0\n",
      "note_on channel=0 note=100 velocity=28 time=0\n",
      "note_on channel=0 note=103 velocity=32 time=0\n",
      "note_on channel=0 note=60 velocity=52 time=0\n",
      "note_on channel=0 note=61 velocity=34 time=0\n",
      "note_on channel=0 note=68 velocity=50 time=0\n",
      "note_on channel=0 note=98 velocity=39 time=0\n",
      "note_on channel=0 note=103 velocity=32 time=0\n",
      "note_on channel=0 note=85 velocity=24 time=0\n",
      "note_on channel=0 note=93 velocity=14 time=0\n",
      "note_off channel=0 note=92 velocity=0 time=171\n",
      "note_off channel=0 note=78 velocity=0 time=85\n",
      "note_off channel=0 note=93 velocity=0 time=0\n",
      "note_off channel=0 note=61 velocity=0 time=0\n",
      "note_off channel=0 note=60 velocity=0 time=0\n",
      "note_off channel=0 note=61 velocity=0 time=0\n",
      "note_off channel=0 note=72 velocity=0 time=0\n",
      "note_off channel=0 note=88 velocity=0 time=0\n",
      "note_off channel=0 note=79 velocity=0 time=0\n",
      "note_off channel=0 note=98 velocity=0 time=0\n",
      "note_off channel=0 note=100 velocity=0 time=0\n",
      "note_off channel=0 note=103 velocity=0 time=0\n",
      "note_off channel=0 note=60 velocity=0 time=0\n",
      "note_off channel=0 note=61 velocity=0 time=0\n",
      "note_on channel=0 note=60 velocity=46 time=0\n",
      "note_on channel=0 note=101 velocity=17 time=0\n",
      "note_on channel=0 note=62 velocity=16 time=0\n",
      "note_on channel=0 note=90 velocity=12 time=0\n",
      "note_on channel=0 note=60 velocity=48 time=0\n",
      "note_on channel=0 note=73 velocity=28 time=0\n",
      "note_off channel=0 note=75 velocity=0 time=85\n",
      "note_off channel=0 note=82 velocity=0 time=0\n",
      "note_on channel=0 note=92 velocity=12 time=0\n",
      "note_on channel=0 note=60 velocity=44 time=0\n",
      "note_on channel=0 note=101 velocity=17 time=0\n",
      "note_on channel=0 note=61 velocity=43 time=0\n",
      "note_on channel=0 note=82 velocity=24 time=0\n",
      "note_on channel=0 note=98 velocity=16 time=0\n",
      "note_off channel=0 note=68 velocity=0 time=171\n",
      "note_off channel=0 note=98 velocity=0 time=0\n",
      "note_off channel=0 note=103 velocity=0 time=0\n",
      "note_off channel=0 note=85 velocity=0 time=0\n",
      "note_off channel=0 note=93 velocity=0 time=0\n",
      "note_off channel=0 note=60 velocity=0 time=0\n",
      "note_off channel=0 note=101 velocity=0 time=0\n",
      "note_off channel=0 note=62 velocity=0 time=0\n",
      "note_off channel=0 note=90 velocity=0 time=0\n",
      "note_off channel=0 note=60 velocity=0 time=0\n",
      "note_off channel=0 note=73 velocity=0 time=0\n",
      "note_off channel=0 note=92 velocity=0 time=85\n",
      "note_off channel=0 note=60 velocity=0 time=0\n",
      "note_off channel=0 note=101 velocity=0 time=0\n",
      "note_off channel=0 note=61 velocity=0 time=0\n",
      "note_off channel=0 note=82 velocity=0 time=0\n",
      "note_off channel=0 note=98 velocity=0 time=0\n",
      "MetaMessage('end_of_track', time=1024)\n"
     ]
    }
   ],
   "source": [
    "from mido import MidiFile\n",
    "mid = MidiFile('output.mid')  \n",
    "for i, track in enumerate(mid.tracks):\n",
    "    print('Track {}: {}'.format(i, track.name))\n",
    "    for msg in track:\n",
    "        print(msg)"
   ]
  },
  {
   "cell_type": "code",
   "execution_count": null,
   "metadata": {},
   "outputs": [],
   "source": [
    "import pretty_midi\n",
    "\n",
    "midi_data = pretty_midi.PrettyMIDI('sample1.midi')\n",
    "print(\"duration:\",midi_data.get_end_time())\n",
    "print(f'{\"note\":>10} {\"start\":>10} {\"end\":>10}')\n",
    "for instrument in midi_data.instruments:\n",
    "    print(\"instrument:\", instrument.program)\n",
    "    for note in instrument.notes:\n",
    "        print(f'{note.pitch:10} {note.start:10} {note.end:10}')"
   ]
  },
  {
   "cell_type": "markdown",
   "metadata": {},
   "source": [
    "Converting midi instrument from piano to sitar"
   ]
  },
  {
   "cell_type": "code",
   "execution_count": 16,
   "metadata": {},
   "outputs": [
    {
     "data": {
      "text/plain": [
       "'output.mid'"
      ]
     },
     "execution_count": 16,
     "metadata": {},
     "output_type": "execute_result"
    }
   ],
   "source": [
    "from music21 import converter,instrument # or import *\n",
    "s = converter.parse('sample1.midi')\n",
    "\n",
    "for el in s.recurse():\n",
    "    if 'Instrument' in el.classes: # or 'Piano'\n",
    "        el.activeSite.replace(el, instrument.Sitar())\n",
    "\n",
    "s.write('midi', 'output.mid')   "
   ]
  }
 ],
 "metadata": {
  "kernelspec": {
   "display_name": "Python 3.10.0 ('saaz')",
   "language": "python",
   "name": "python3"
  },
  "language_info": {
   "codemirror_mode": {
    "name": "ipython",
    "version": 3
   },
   "file_extension": ".py",
   "mimetype": "text/x-python",
   "name": "python",
   "nbconvert_exporter": "python",
   "pygments_lexer": "ipython3",
   "version": "3.10.9"
  },
  "orig_nbformat": 4,
  "vscode": {
   "interpreter": {
    "hash": "9658b5ba484556f7e804bf356655af7b6ca66e3daab532442de2c49f4b7cc5ed"
   }
  }
 },
 "nbformat": 4,
 "nbformat_minor": 2
}
